<mxfile host="65bd71144e">
    <diagram id="ImHb91PlmOD7dPYireUU" name="Page-1">
        <mxGraphModel dx="2598" dy="800" grid="1" gridSize="10" guides="1" tooltips="1" connect="1" arrows="1" fold="1" page="1" pageScale="1" pageWidth="850" pageHeight="1100" math="0" shadow="0">
            <root>
                <mxCell id="0"/>
                <mxCell id="1" parent="0"/>
                <mxCell id="20" value="" style="rounded=1;whiteSpace=wrap;html=1;" parent="1" vertex="1">
                    <mxGeometry x="130" y="380" width="360" height="110" as="geometry"/>
                </mxCell>
                <mxCell id="21" value="Stake pool" style="rounded=1;whiteSpace=wrap;html=1;" parent="1" vertex="1">
                    <mxGeometry x="140" y="428.75" width="90" height="40" as="geometry"/>
                </mxCell>
                <mxCell id="22" value="Liquidity" style="rounded=1;whiteSpace=wrap;html=1;" parent="1" vertex="1">
                    <mxGeometry x="265" y="426.25" width="90" height="42.5" as="geometry"/>
                </mxCell>
                <mxCell id="30" value="" style="rounded=1;whiteSpace=wrap;html=1;" parent="1" vertex="1">
                    <mxGeometry x="135" y="180" width="360" height="100" as="geometry"/>
                </mxCell>
                <mxCell id="17" value="Token 1&lt;br&gt;(NEP 141)" style="rounded=1;whiteSpace=wrap;html=1;" parent="1" vertex="1">
                    <mxGeometry x="145" y="220" width="90" height="40" as="geometry"/>
                </mxCell>
                <mxCell id="18" value="Token 2&lt;br&gt;(NEP 141)" style="rounded=1;whiteSpace=wrap;html=1;" parent="1" vertex="1">
                    <mxGeometry x="265" y="220" width="90" height="40" as="geometry"/>
                </mxCell>
                <mxCell id="19" value="Token n&lt;br&gt;(NEP 141)" style="rounded=1;whiteSpace=wrap;html=1;" parent="1" vertex="1">
                    <mxGeometry x="385" y="220" width="90" height="40" as="geometry"/>
                </mxCell>
                <mxCell id="31" value="GeFi Token defination" style="text;strokeColor=none;fillColor=none;align=left;verticalAlign=top;spacingLeft=4;spacingRight=4;overflow=hidden;rotatable=0;points=[[0,0.5],[1,0.5]];portConstraint=eastwest;" parent="1" vertex="1">
                    <mxGeometry x="145" y="180" width="130" height="26" as="geometry"/>
                </mxCell>
                <mxCell id="32" value="Near Protocol" style="text;strokeColor=none;fillColor=none;align=left;verticalAlign=top;spacingLeft=4;spacingRight=4;overflow=hidden;rotatable=0;points=[[0,0.5],[1,0.5]];portConstraint=eastwest;" parent="1" vertex="1">
                    <mxGeometry x="140" y="390" width="100" height="26" as="geometry"/>
                </mxCell>
                <mxCell id="33" value="Rainbow" style="rounded=1;whiteSpace=wrap;html=1;" parent="1" vertex="1">
                    <mxGeometry x="390" y="430" width="90" height="40" as="geometry"/>
                </mxCell>
                <mxCell id="35" value="" style="shape=flexArrow;endArrow=classic;startArrow=classic;html=1;entryX=0.5;entryY=1;entryDx=0;entryDy=0;" parent="1" target="30" edge="1">
                    <mxGeometry width="100" height="100" relative="1" as="geometry">
                        <mxPoint x="315" y="380" as="sourcePoint"/>
                        <mxPoint x="585" y="210" as="targetPoint"/>
                    </mxGeometry>
                </mxCell>
                <mxCell id="37" value="Swap" style="edgeLabel;html=1;align=center;verticalAlign=middle;resizable=0;points=[];" parent="35" vertex="1" connectable="0">
                    <mxGeometry x="0.2" y="5" relative="1" as="geometry">
                        <mxPoint x="-20" y="10" as="offset"/>
                    </mxGeometry>
                </mxCell>
                <mxCell id="36" style="edgeStyle=elbowEdgeStyle;rounded=0;orthogonalLoop=1;jettySize=auto;elbow=vertical;html=1;entryX=0.5;entryY=0;entryDx=0;entryDy=0;" parent="1" source="22" target="22" edge="1">
                    <mxGeometry relative="1" as="geometry"/>
                </mxCell>
                <mxCell id="38" value="" style="rounded=1;whiteSpace=wrap;html=1;" parent="1" vertex="1">
                    <mxGeometry x="580" y="180" width="170" height="310" as="geometry"/>
                </mxCell>
                <mxCell id="39" value="GeFi Decentralize Storage" style="text;strokeColor=none;fillColor=none;align=left;verticalAlign=top;spacingLeft=4;spacingRight=4;overflow=hidden;rotatable=0;points=[[0,0.5],[1,0.5]];portConstraint=eastwest;" parent="1" vertex="1">
                    <mxGeometry x="590" y="190" width="160" height="26" as="geometry"/>
                </mxCell>
                <mxCell id="40" value="End user storage" style="rounded=1;whiteSpace=wrap;html=1;" parent="1" vertex="1">
                    <mxGeometry x="600" y="230" width="130" height="60" as="geometry"/>
                </mxCell>
                <mxCell id="41" value="Provider storage" style="rounded=1;whiteSpace=wrap;html=1;" parent="1" vertex="1">
                    <mxGeometry x="600" y="320" width="130" height="60" as="geometry"/>
                </mxCell>
                <mxCell id="42" value="" style="shape=flexArrow;endArrow=classic;startArrow=classic;html=1;entryX=-0.018;entryY=0.177;entryDx=0;entryDy=0;entryPerimeter=0;" parent="1" target="38" edge="1">
                    <mxGeometry width="100" height="100" relative="1" as="geometry">
                        <mxPoint x="500" y="235" as="sourcePoint"/>
                        <mxPoint x="650" y="230" as="targetPoint"/>
                    </mxGeometry>
                </mxCell>
                <mxCell id="43" value="View&lt;br&gt;Interface" style="rounded=0;whiteSpace=wrap;html=1;" parent="1" vertex="1">
                    <mxGeometry x="870" y="150" width="60" height="370" as="geometry"/>
                </mxCell>
                <mxCell id="45" value="" style="endArrow=none;dashed=1;html=1;" parent="1" edge="1">
                    <mxGeometry width="50" height="50" relative="1" as="geometry">
                        <mxPoint x="100" y="150" as="sourcePoint"/>
                        <mxPoint x="780" y="150" as="targetPoint"/>
                    </mxGeometry>
                </mxCell>
                <mxCell id="46" value="" style="endArrow=none;dashed=1;html=1;" parent="1" edge="1">
                    <mxGeometry width="50" height="50" relative="1" as="geometry">
                        <mxPoint x="100" y="520" as="sourcePoint"/>
                        <mxPoint x="100" y="150" as="targetPoint"/>
                    </mxGeometry>
                </mxCell>
                <mxCell id="47" value="" style="endArrow=none;dashed=1;html=1;" parent="1" edge="1">
                    <mxGeometry width="50" height="50" relative="1" as="geometry">
                        <mxPoint x="100" y="520" as="sourcePoint"/>
                        <mxPoint x="780" y="520" as="targetPoint"/>
                    </mxGeometry>
                </mxCell>
                <mxCell id="49" value="" style="endArrow=none;dashed=1;html=1;" parent="1" edge="1">
                    <mxGeometry width="50" height="50" relative="1" as="geometry">
                        <mxPoint x="780" y="520" as="sourcePoint"/>
                        <mxPoint x="780" y="150" as="targetPoint"/>
                    </mxGeometry>
                </mxCell>
                <mxCell id="50" value="GeFi Producer Generator" style="rounded=0;whiteSpace=wrap;html=1;" parent="1" vertex="1">
                    <mxGeometry x="10" y="146" width="60" height="374" as="geometry"/>
                </mxCell>
                <mxCell id="65" style="edgeStyle=orthogonalEdgeStyle;rounded=0;orthogonalLoop=1;jettySize=auto;html=1;" edge="1" parent="1">
                    <mxGeometry relative="1" as="geometry">
                        <mxPoint x="-135" y="370" as="sourcePoint"/>
                        <mxPoint x="70" y="823" as="targetPoint"/>
                        <Array as="points">
                            <mxPoint x="-135" y="823"/>
                        </Array>
                    </mxGeometry>
                </mxCell>
                <mxCell id="66" value="Deployment" style="edgeLabel;html=1;align=center;verticalAlign=middle;resizable=0;points=[];" vertex="1" connectable="0" parent="65">
                    <mxGeometry x="-0.4377" y="-2" relative="1" as="geometry">
                        <mxPoint x="2" y="45" as="offset"/>
                    </mxGeometry>
                </mxCell>
                <mxCell id="51" value="Producer" style="shape=umlActor;verticalLabelPosition=bottom;verticalAlign=top;html=1;outlineConnect=0;" parent="1" vertex="1">
                    <mxGeometry x="-150" y="280" width="30" height="60" as="geometry"/>
                </mxCell>
                <mxCell id="52" value="" style="endArrow=classic;html=1;entryX=-0.017;entryY=0.465;entryDx=0;entryDy=0;entryPerimeter=0;" parent="1" target="50" edge="1">
                    <mxGeometry width="50" height="50" relative="1" as="geometry">
                        <mxPoint x="-110" y="320" as="sourcePoint"/>
                        <mxPoint x="-60" y="270" as="targetPoint"/>
                    </mxGeometry>
                </mxCell>
                <mxCell id="53" value="Register token" style="edgeLabel;html=1;align=center;verticalAlign=middle;resizable=0;points=[];fontSize=12;" parent="52" vertex="1" connectable="0">
                    <mxGeometry x="-0.4621" y="-3" relative="1" as="geometry">
                        <mxPoint x="18" y="-13" as="offset"/>
                    </mxGeometry>
                </mxCell>
                <mxCell id="54" value="Register Storage" style="text;strokeColor=none;fillColor=none;align=left;verticalAlign=top;spacingLeft=4;spacingRight=4;overflow=hidden;rotatable=0;points=[[0,0.5],[1,0.5]];portConstraint=eastwest;" parent="1" vertex="1">
                    <mxGeometry x="-103" y="320" width="110" height="26" as="geometry"/>
                </mxCell>
                <mxCell id="55" value="Register" style="endArrow=classic;html=1;fontSize=12;exitX=-0.067;exitY=0.484;exitDx=0;exitDy=0;exitPerimeter=0;" parent="1" source="43" edge="1">
                    <mxGeometry x="-0.0559" y="-10" width="50" height="50" relative="1" as="geometry">
                        <mxPoint x="830" y="330" as="sourcePoint"/>
                        <mxPoint x="790" y="330" as="targetPoint"/>
                        <mxPoint as="offset"/>
                    </mxGeometry>
                </mxCell>
                <mxCell id="56" value="Swap" style="text;strokeColor=none;fillColor=none;align=left;verticalAlign=top;spacingLeft=4;spacingRight=4;overflow=hidden;rotatable=0;points=[[0,0.5],[1,0.5]];portConstraint=eastwest;fontSize=12;" parent="1" vertex="1">
                    <mxGeometry x="810" y="330" width="60" height="26" as="geometry"/>
                </mxCell>
                <mxCell id="60" value="" style="ellipse;shape=cloud;whiteSpace=wrap;html=1;" vertex="1" parent="1">
                    <mxGeometry x="30" y="680" width="430" height="260" as="geometry"/>
                </mxCell>
                <mxCell id="61" value="dApp" style="aspect=fixed;html=1;points=[];align=center;image;fontSize=12;image=img/lib/mscae/Intune_App_Protection.svg;" vertex="1" parent="1">
                    <mxGeometry x="140" y="760" width="40" height="32" as="geometry"/>
                </mxCell>
                <mxCell id="62" value="dApp" style="aspect=fixed;html=1;points=[];align=center;image;fontSize=12;image=img/lib/mscae/Intune_App_Protection.svg;" vertex="1" parent="1">
                    <mxGeometry x="220" y="780" width="40" height="32" as="geometry"/>
                </mxCell>
                <mxCell id="63" value="dApp" style="aspect=fixed;html=1;points=[];align=center;image;fontSize=12;image=img/lib/mscae/Intune_App_Protection.svg;" vertex="1" parent="1">
                    <mxGeometry x="225" y="870" width="40" height="32" as="geometry"/>
                </mxCell>
                <mxCell id="64" value="dApp" style="aspect=fixed;html=1;points=[];align=center;image;fontSize=12;image=img/lib/mscae/Intune_App_Protection.svg;" vertex="1" parent="1">
                    <mxGeometry x="330" y="794" width="40" height="32" as="geometry"/>
                </mxCell>
            </root>
        </mxGraphModel>
    </diagram>
</mxfile>